<svg aria-hidden="true" style="position: absolute; width: 0; height: 0; overflow: hidden;" version="1.1" xmlns="http://www.w3.org/2000/svg" xmlns:xlink="http://www.w3.org/1999/xlink">
<defs>
<symbol id="icon-group" viewBox="0 0 32 32">
<path fill="none" stroke="#20ad96" style="stroke: var(--color1, #20ad96)" stroke-linejoin="round" stroke-linecap="round" stroke-miterlimit="4" stroke-width="1.7143" d="M22.6 9.4c3.645 3.646 3.645 9.554 0 13.2-3.645 3.645-9.554 3.645-13.2 0-3.645-3.646-3.645-9.554 0-13.2 3.646-3.645 9.555-3.645 13.2 0z"></path>
<path fill="none" stroke="#333461" style="stroke: var(--color2, #333461)" stroke-linejoin="round" stroke-linecap="round" stroke-miterlimit="4" stroke-width="1.7143" d="M17.886 14.114c0.49 0.484 0.793 1.155 0.793 1.898 0 1.473-1.194 2.667-2.667 2.667-0.742 0-1.414-0.303-1.898-0.793l-0-0c-0.475-0.481-0.769-1.143-0.769-1.874 0-1.473 1.194-2.667 2.667-2.667 0.73 0 1.392 0.294 1.874 0.769l-0-0"></path>
<path fill="none" stroke="#20ad96" style="stroke: var(--color1, #20ad96)" stroke-linejoin="round" stroke-linecap="round" stroke-miterlimit="4" stroke-width="1.7143" d="M16 28v-5.333M16 4v5.333M9.333 16h-5.333M28 16h-5.333"></path>
</symbol>
<symbol id="icon-vector" viewBox="0 0 190 32">
<path fill="#20ad96" style="fill: var(--color1, #20ad96)" d="M49.431 8.137l22.752 23.863 22.92-23.863 22.835 23.863 22.75-23.863 22.833 23.863 26.598-27.795-4.111-4.205-22.487 23.497-22.485-23.497-0.35 0.365-0.262-0.365-22.485 23.497-22.573-23.497-0.264 0.365-0.35-0.365-22.571 23.497-22.487-23.497-0.264 0.365-0.346-0.365-22.487 23.497-22.485-23.497-4.113 4.205 26.598 27.795 22.833-23.863z"></path>
</symbol>
</defs>
</svg>
